<?xml version="1.0" encoding="utf-8"?>
<!-- Generator: Adobe Illustrator 16.2.0, SVG Export Plug-In . SVG Version: 6.00 Build 0)  -->
<!DOCTYPE svg PUBLIC "-//W3C//DTD SVG 1.1//EN" "http://www.w3.org/Graphics/SVG/1.1/DTD/svg11.dtd">
<svg version="1.1" id="Слой_1" xmlns="http://www.w3.org/2000/svg" xmlns:xlink="http://www.w3.org/1999/xlink" x="0px" y="0px"
	 width="162px" height="35px" viewBox="0 0 162 35" enable-background="new 0 0 162 35" xml:space="preserve">
<g>
	<path fill="#FFC600" d="M13.425,0.673c4.634,0,8.509,1.61,11.625,4.832c3.117,3.221,4.674,7.219,4.674,11.995
		c0,4.775-1.558,8.773-4.674,11.995c-3.116,3.221-6.992,4.832-11.625,4.832H0V0.673H13.425z M13.425,26.923
		c2.652,0,4.802-0.856,6.448-2.572c1.646-1.714,2.469-3.998,2.469-6.851s-0.823-5.136-2.469-6.852
		c-1.646-1.714-3.796-2.572-6.448-2.572H7.67v18.846H13.425z"/>
	<path fill="#FFC600" d="M42.189,26.923h13.424v7.404H34.519V0.673h20.855v7.404H42.189v5.577h11.986v7.308H42.189V26.923z"/>
	<path fill="#FFC600" d="M68.463,34.327L57.532,0.673h8.39l7.431,24.76l7.432-24.76h8.389l-10.93,33.654H68.463z"/>
	<path fill="#FFC600" d="M92.529,0.673h7.671v33.654h-7.671V0.673z"/>
	<path fill="#FFC600" d="M122.446,35c-5.019,0-9.182-1.674-12.489-5.025c-3.309-3.348-4.962-7.506-4.962-12.475
		c0-4.968,1.653-9.126,4.962-12.476C113.265,1.675,117.428,0,122.446,0c3.004,0,5.784,0.697,8.342,2.091
		c2.558,1.395,4.57,3.293,6.04,5.697l-6.615,3.847c-0.736-1.314-1.79-2.332-3.165-3.053C125.674,7.86,124.14,7.5,122.446,7.5
		c-2.974,0-5.347,0.914-7.12,2.741c-1.773,1.827-2.66,4.247-2.66,7.26s0.887,5.433,2.66,7.26s4.146,2.74,7.12,2.74
		c1.693,0,3.236-0.368,4.626-1.105c1.391-0.737,2.437-1.746,3.141-3.029l6.615,3.846c-1.438,2.404-3.435,4.304-5.992,5.697
		C128.279,34.303,125.482,35,122.446,35z"/>
	<path fill="#FFC600" d="M148.575,26.923H162v7.404h-21.095V0.673h20.854v7.404h-13.185v5.577h11.986v7.308h-11.986V26.923z"/>
</g>
</svg>
